<svg xmlns="http://www.w3.org/2000/svg" viewBox="0 0 225.64 148.04"><defs><style>.cls-1{fill:#191d26;}</style></defs><g id="Layer_2" data-name="Layer 2"><g id="_YOUR_TEXT_HERE_" data-name="[YOUR TEXT HERE]"><path class="cls-1" d="M2.54,124.67a1.17,1.17,0,0,1-.75.79,3.31,3.31,0,0,1-1,.16H.16L51,5.88a1.65,1.65,0,0,1,1.59-1h.8Z"/><path class="cls-1" d="M53,4.93h.8a1.65,1.65,0,0,1,1.59,1l50.88,119.74h-.63a3.31,3.31,0,0,1-1-.16,1.19,1.19,0,0,1-.75-.79Z"/><path class="cls-1" d="M128.64,0h1.59V148h-1.59Z"/><path class="cls-1" d="M174.76,0h1.59V148h-1.59Z"/><path class="cls-1" d="M207.35,115.61a5.17,5.17,0,0,1,1.47-3.7,4.81,4.81,0,0,1,3.62-1.55,5.29,5.29,0,0,1,5.25,5.25,4.79,4.79,0,0,1-1.55,3.61,5.19,5.19,0,0,1-3.7,1.47,5,5,0,0,1-5.09-5.08Z"/><path class="cls-1" d="M0,81.34V79.59H225.64v1.75Z"/></g></g></svg>